<svg width="315" height="180" xmlns="http://www.w3.org/2000/svg">

 <g>
  <title>background</title>
  <rect fill="none" id="canvas_background" height="182" width="317" y="-1" x="-1"/>
 </g>
 <g>
  <title>Layer 1</title>
  <g stroke="null" id="svg_5">
   <path stroke="null" id="svg_3" d="m157.377995,2.605387c86.084221,0 155.873993,39.208853 155.873993,87.570695c0,48.363616 -69.789771,87.568921 -155.873993,87.568921c-86.085995,0 -155.873993,-39.207079 -155.873993,-87.568921c0,-48.361842 69.787998,-87.570695 155.873993,-87.570695l0,0z"/>
   <path stroke="null" id="svg_4" d="m210.598371,29.315797c0,0 14.513519,20.08691 7.850995,30.495774c-4.885142,7.63636 -13.085582,9.550329 -19.984027,9.550329c-20.289127,0 -21.019947,-11.540572 -21.019947,-11.540572l-2.786695,-35.121937l-9.477601,15.052765l-15.60975,0l-9.477601,-15.052765l-2.786695,35.121937c0,0 -0.732594,11.540572 -21.021721,11.540572c-6.896671,0 -15.095337,-1.915742 -19.982253,-9.550329c-6.662525,-10.410639 7.850995,-30.495774 7.850995,-30.495774c-39.959185,11.049219 -67.458952,34.148101 -67.458952,60.860285c0,20.853206 16.764516,39.50331 43.127255,51.939668c-3.12195,-4.404433 -10.811525,-17.213297 -2.167627,-26.313071c10.593344,-11.148554 27.317062,-4.457648 34.564952,6.690906c0,0 0.556984,-12.823055 13.380039,-11.148554c12.823055,1.669179 29.546773,16.725492 31.776483,34.561405c2.229711,-17.837687 18.955203,-32.892226 31.776483,-34.561405c12.823055,-1.6745 13.380039,11.148554 13.380039,11.148554c7.247891,-11.148554 23.973382,-17.841234 34.566726,-6.690906c8.642125,9.099774 0.952549,21.908638 -2.1694,26.313071c26.362738,-12.438132 43.127255,-31.086462 43.127255,-51.939668c0,-26.71041 -27.501541,-49.809292 -67.458952,-60.860285l0,0zm-53.220377,-17.981367c77.505954,0 140.338744,35.29932 140.338744,78.841652s-62.83279,78.843426 -140.338744,78.843426c-77.507728,0 -140.342292,-35.301094 -140.342292,-78.843426s62.834564,-78.841652 140.342292,-78.841652l0,0z" fill="#FFDD00"/>
  </g>
 </g>
</svg>